<?xml version="1.0" standalone="no"?><!DOCTYPE svg PUBLIC "-//W3C//DTD SVG 1.1//EN" "http://www.w3.org/Graphics/SVG/1.1/DTD/svg11.dtd"><svg t="1741452813741" class="icon" viewBox="0 0 1024 1024" version="1.1" xmlns="http://www.w3.org/2000/svg" p-id="1766" xmlns:xlink="http://www.w3.org/1999/xlink" width="200" height="200"><path d="M304 640a80 80 0 1 0 0 160 80 80 0 0 0 0-160zM160 720a144 144 0 1 1 288 0 144 144 0 0 1-288 0zM720 640a80 80 0 1 0 0 160 80 80 0 0 0 0-160zM576 720a144 144 0 1 1 288 0 144 144 0 0 1-288 0z" fill="#000000" p-id="1767"></path><path d="M384 720a32 32 0 0 1 32-32h192a32 32 0 1 1 0 64h-192a32 32 0 0 1-32-32zM0 480a32 32 0 0 1 32-32h960a32 32 0 1 1 0 64H32a32 32 0 0 1-32-32z" fill="#000000" p-id="1768"></path><path d="M354.048 159.84a64 64 0 0 1 82.496 21.088l0.128 0.16L512 294.528l0.16-0.224 75.296-113.376a64 64 0 0 1 105.6-0.864v0.064l197.152 281.504a32 32 0 0 1-52.416 36.736L640.544 216.64l-75.04 112.96a64 64 0 0 1-107.008 0l-75.04-112.96-0.032 0.096-197.216 281.6a32 32 0 1 1-52.416-36.736l197.12-281.504 0.064-0.064a64 64 0 0 1 23.072-20.224z" fill="#000000" p-id="1769"></path></svg>